<?xml version="1.0" encoding="UTF-8" standalone="no"?>
<!-- Created with Inkscape (http://www.inkscape.org/) -->

<svg
   xmlns:dc="http://purl.org/dc/elements/1.1/"
   xmlns:cc="http://creativecommons.org/ns#"
   xmlns:rdf="http://www.w3.org/1999/02/22-rdf-syntax-ns#"
   xmlns:svg="http://www.w3.org/2000/svg"
   xmlns="http://www.w3.org/2000/svg"
   xmlns:sodipodi="http://sodipodi.sourceforge.net/DTD/sodipodi-0.dtd"
   xmlns:inkscape="http://www.inkscape.org/namespaces/inkscape"
   width="1073.782"
   height="1073.782"
   id="svg2"
   version="1.1"
   inkscape:version="0.48.2 r9819"
   sodipodi:docname="logo_tan_stop.svg">
  <defs
     id="defs4" />
  <sodipodi:namedview
     id="base"
     pagecolor="#ffffff"
     bordercolor="#666666"
     borderopacity="1.0"
     inkscape:pageopacity="0"
     inkscape:pageshadow="2"
     inkscape:zoom="0.24748737"
     inkscape:cx="557.22943"
     inkscape:cy="856.00816"
     inkscape:document-units="px"
     inkscape:current-layer="layer1"
     showgrid="false"
     fit-margin-top="0"
     fit-margin-left="0"
     fit-margin-right="0"
     fit-margin-bottom="0"
     inkscape:window-width="1366"
     inkscape:window-height="706"
     inkscape:window-x="-8"
     inkscape:window-y="-8"
     inkscape:window-maximized="1" />
  <metadata
     id="metadata7">
    <rdf:RDF>
      <cc:Work
         rdf:about="">
        <dc:format>image/svg+xml</dc:format>
        <dc:type
           rdf:resource="http://purl.org/dc/dcmitype/StillImage" />
        <dc:title />
      </cc:Work>
    </rdf:RDF>
  </metadata>
  <g
     inkscape:label="Calque 1"
     inkscape:groupmode="layer"
     id="layer1"
     transform="translate(1316.6918,141.35178)">
    <path
       sodipodi:type="arc"
       style="fill:#38a541;fill-opacity:1;fill-rule:evenodd;stroke:#000000;stroke-width:1px;stroke-linecap:butt;stroke-linejoin:miter;stroke-opacity:0"
       id="path3041"
       sodipodi:cx="-221.2234"
       sodipodi:cy="771.74121"
       sodipodi:rx="536.39099"
       sodipodi:ry="536.39099"
       d="m 315.16759,771.74121 c 0,296.24059 -240.15043,536.39099 -536.39099,536.39099 -296.24057,0 -536.391,-240.1504 -536.391,-536.39099 0,-296.24056 240.15043,-536.39099 536.391,-536.39099 296.24056,0 536.39099,240.15043 536.39099,536.39099 z"
       transform="translate(-558.57739,-376.202)" />
    <path
       style="fill:#ffffff"
       d="m -1137.0399,717.9463 c -4.9618,-0.53948 -11.3412,-1.8789 -14.1765,-2.97643 -2.8353,-1.09752 -7.2267,-2.02093 -9.7585,-2.05199 -18.9943,-0.23339 -39.5562,-22.21773 -42.4051,-45.33851 -3.7484,-30.42041 12.7945,-75.35798 46.8686,-127.31474 12.4134,-18.92826 26.3871,-34.7034 58.3097,-65.82697 40.8783,-39.85515 75.2433,-70.08198 84.7651,-74.55778 3.0503,-1.43376 9.8344,-6.00505 15.07602,-10.15839 5.24145,-4.15321 16.54099,-12.83634 25.11004,-19.29569 31.4795,-23.72921 39.1929,-31.85559 39.1929,-41.29188 0,-11.05255 -14.66831,-27.5262 -26.73775,-30.02862 -2.6605,-0.5516 -8.31697,-2.46556 -12.56993,-4.25322 -4.25296,-1.78753 -12.9522,-3.91054 -19.33164,-4.71757 -55.14514,-6.9764 -126.48664,-22.1594 -132.53324,-28.20589 -2.7187,-2.7187 -2.7193,-2.73678 -0.2321,-7.35523 2.6859,-4.98732 9.8765,-10.54335 18.0933,-13.98004 12.9527,-5.41757 92.1078,-9.96058 250.63795,-14.38501 l 79.25975,-2.21207 23.19798,-12.20773 c 29.65155,-15.60386 43.06986,-23.81003 59.19729,-36.20299 7.1358,-5.48345 19.62148,-14.50278 27.74595,-20.04297 8.12446,-5.54021 18.56355,-13.09665 23.19798,-16.79212 4.63441,-3.69545 11.32596,-8.65295 14.87009,-11.01664 3.54414,-2.36369 18.33285,-13.10576 32.8638,-23.87124 31.30727,-23.194491 42.65239,-30.687381 49.61789,-32.770162 3.68875,-1.102973 16.15279,-1.389907 43.8184,-1.008699 37.23376,0.513049 39.11598,0.660807 50.90667,3.99619 18.00135,5.09225 27.55948,10.09369 30.29119,15.85032 3.39615,7.15686 2.07957,15.737141 -3.7031,24.133301 -5.5551,8.06576 -46.95304,49.14283 -62.67383,62.18805 -27.90462,23.15546 -45.75197,31.21689 -79.25975,35.8007 -26.00255,3.5571 -32.10339,4.71644 -35.11916,6.67375 -3.51269,2.27982 -3.70612,5.69631 -0.54362,9.60183 2.14654,2.65086 3.89485,2.99931 19.65385,3.91716 9.51373,0.5541 51.8047,0.49475 93.97991,-0.13189 85.15301,-1.26522 107.69032,-1.91671 139.8479,-4.04258 29.89689,-1.97643 41.72224,0.0961 51.2132,8.97601 4.73378,4.42899 5.08857,13.37481 0.64439,16.24792 -1.63598,1.05764 -19.74992,4.47406 -41.56304,7.8391 -102.91729,15.87667 -128.97494,20.55326 -166.02984,29.7974 -12.63661,3.15247 -32.90293,7.77647 -45.03626,10.27554 -61.26847,12.61931 -116.94884,28.73185 -186.02046,53.82987 -44.46086,16.15533 -71.57981,28.76949 -113.92655,52.99153 -46.00482,26.31449 -75.80798,50.20944 -118.99731,95.40721 -45.88827,48.02201 -62.49167,69.66572 -71.61247,93.35124 -9.9658,25.88017 -12.2007,67.85769 -4.188,78.6633 5.7999,7.82133 22.8772,12.40473 52.75122,14.15786 22.07725,1.2956 30.20551,3.14435 37.16569,8.45308 4.34284,3.31241 4.44127,3.56385 2.31528,5.91304 -3.2374,3.57725 -23.75588,9.72381 -37.89779,11.35283 -29.2864,3.37324 -123.7809,5.06566 -146.2761,2.61982 z"
       id="path3043"
       inkscape:connector-curvature="0" />
  </g>
</svg>
