<?xml version="1.0" encoding="UTF-8" standalone="no"?>
<!-- Created with Inkscape (http://www.inkscape.org/) -->

<svg
   xmlns:dc="http://purl.org/dc/elements/1.1/"
   xmlns:cc="http://creativecommons.org/ns#"
   xmlns:rdf="http://www.w3.org/1999/02/22-rdf-syntax-ns#"
   xmlns:svg="http://www.w3.org/2000/svg"
   xmlns="http://www.w3.org/2000/svg"
   xmlns:sodipodi="http://sodipodi.sourceforge.net/DTD/sodipodi-0.dtd"
   xmlns:inkscape="http://www.inkscape.org/namespaces/inkscape"
   width="1644.9531"
   height="666.40698"
   id="svg2"
   version="1.1"
   inkscape:version="0.48.1 "
   sodipodi:docname="rot_logo.svg">
  <defs
     id="defs4" />
  <sodipodi:namedview
     id="base"
     pagecolor="#ffffff"
     bordercolor="#666666"
     borderopacity="1.0"
     inkscape:pageopacity="0.0"
     inkscape:pageshadow="2"
     inkscape:zoom="0.49497475"
     inkscape:cx="1046.426"
     inkscape:cy="298.63644"
     inkscape:document-units="px"
     inkscape:current-layer="g4086"
     showgrid="false"
     fit-margin-top="0"
     fit-margin-left="0"
     fit-margin-right="0"
     fit-margin-bottom="0"
     inkscape:window-width="1680"
     inkscape:window-height="994"
     inkscape:window-x="-4"
     inkscape:window-y="-4"
     inkscape:window-maximized="1">
    <inkscape:grid
       type="xygrid"
       id="grid3233"
       empspacing="5"
       visible="true"
       enabled="true"
       snapvisiblegridlinesonly="true" />
  </sodipodi:namedview>
  <metadata
     id="metadata7">
    <rdf:RDF>
      <cc:Work
         rdf:about="">
        <dc:format>image/svg+xml</dc:format>
        <dc:type
           rdf:resource="http://purl.org/dc/dcmitype/StillImage" />
        <dc:title />
      </cc:Work>
    </rdf:RDF>
  </metadata>
  <g
     inkscape:label="Calque 1"
     inkscape:groupmode="layer"
     id="layer1"
     transform="translate(536.3349,942.68932)">
    <g
       transform="translate(146.7276,-306.47805)"
       style="font-size:800px;font-style:normal;font-variant:normal;font-weight:normal;font-stretch:normal;line-height:125%;letter-spacing:0px;word-spacing:0px;fill:#008000;fill-opacity:1;stroke:none;font-family:SpotLights;-inkscape-font-specification:SpotLights"
       id="flowRoot3198">
      <path
         d="m -367.82812,-624.88243 10.9375,0 c 118.22869,5.4e-4 211.71818,61.06819 280.468745,183.20312 21.353516,46.09407 32.030589,91.0159 32.03125,134.76563 l 0,21.875 c -6.61e-4,107.03135 -53.906857,197.786465 -161.718745,272.265623 -53.12545,28.645739 -106.12019,42.968641 -158.98438,42.96875 -72.65652,-1.09e-4 -139.0627,-26.0417494 -199.21875,-78.125 l 5.07813,-2.734375 29.6875,0 0,-134.765628 c -1.8e-4,-2.60405 2.73419,-5.33843 8.20312,-8.20312 l 42.96875,0 c 43.2289,1.1e-4 64.84346,25.1303 64.84375,75.39062 -2.9e-4,45.052081 2.73408,67.5781 8.20313,67.578128 l 128.125,-1.953125 c -6.51084,-7.812518 -9.76605,-20.70313 -9.76563,-38.671875 l 0,-34.765628 c -4.2e-4,-58.85406 -11.58895,-93.88006 -34.76562,-105.07812 -17.96912,-4.94776 -26.95349,-9.50505 -26.95313,-13.67188 41.14544,-15.10398 61.71833,-48.30707 61.71875,-99.60937 -4.2e-4,-45.57261 -16.14624,-77.08299 -48.4375,-94.53125 -26.04201,-14.32254 -74.47946,-21.484 -145.3125,-21.48438 l -153.90625,0 c -7e-5,-22.91626 35.02594,-61.5881 105.07813,-116.01562 53.90601,-32.29114 107.81221,-48.43696 161.71875,-48.4375 z m -296.48438,232.03125 2.73438,0 0,191.40625 -5.46875,0 c -7.03129,-22.91652 -12.36982,-55.33837 -16.01563,-97.26563 4.16664,-53.90597 10.41663,-85.28615 18.75,-94.14062 z m 151.17188,26.95312 37.5,0 c 43.22889,3.64612 64.84345,17.96902 64.84375,42.96875 -3e-4,27.08355 -22.52632,40.62521 -67.57813,40.625 l -34.76562,0 c -10.93769,2.1e-4 -16.40643,-5.46854 -16.40625,-16.40625 l 0,-51.17187 c -1.8e-4,-10.6768 5.46856,-16.01534 16.40625,-16.01563 z"
         style=""
         id="path4105" />
    </g>
    <g
       transform="translate(1214.7276,-282.47805)"
       style="font-size:800px;font-style:normal;font-variant:normal;font-weight:normal;font-stretch:normal;line-height:125%;letter-spacing:0px;word-spacing:0px;fill:#008000;fill-opacity:1;stroke:none;font-family:SpotLights;-inkscape-font-specification:SpotLights"
       id="flowRoot3198-1">
      <path
         d="m -429.54687,-650.27306 10.9375,0 c 118.22876,5.7e-4 211.71825,61.06822 280.46875,183.20313 21.35357,46.09409 32.03065,91.01592 32.03124,134.76562 l 0,21.48438 c -5.9e-4,110.15637 -56.51095,202.7344 -169.53124,277.734373 -19.53167,9.635362 -41.14623,17.70827 -64.84375,24.2187502 l -2.73438,-5.4687502 0,-242.578123 c -3.6e-4,-2.34357 2.73401,-4.94774 8.20313,-7.8125 l 110.54687,0 0,-107.8125 -371.875,0 0,107.8125 112.89063,0 c 2.60394,1.8e-4 5.33831,2.60435 8.20312,7.8125 l 0,248.0468732 -5.46875,8.20312503 C -519.00019,-6.1325044 -565.74493,-27.747066 -620.95312,-65.507432 -703.50521,-140.24695 -744.78121,-226.44478 -744.78125,-324.10118 c 4e-5,-124.21838 61.97914,-223.04641 185.9375,-296.48438 47.13522,-19.7911 90.23414,-29.68693 129.29688,-29.6875 z"
         style=""
         id="path4108" />
    </g>
    <g
       id="g4086"
       transform="translate(0,2)">
      <g
         id="g4065"
         style="fill:#008000">
        <path
           style="fill:#008000"
           d="m 259.78287,-384.37382 c -0.25492,-0.4125 -3.58693,-0.75 -7.40447,-0.75 -3.81754,0 -6.94098,-0.39678 -6.94098,-0.88172 0,-0.48495 -3.82332,-1.20021 -8.49627,-1.58946 -4.67295,-0.38926 -8.72345,-1.07532 -9.00112,-1.52459 -0.27766,-0.44928 -2.86684,-1.13441 -5.75373,-1.52252 -2.88688,-0.38811 -5.69888,-1.05488 -6.24888,-1.48171 -0.55,-0.42683 -3.362,-1.0936 -6.24888,-1.48171 -2.88689,-0.38811 -5.50095,-1.1135 -5.80902,-1.61197 -0.30807,-0.49848 -1.65858,-0.90632 -3.00112,-0.90632 -1.34254,0 -2.44098,-0.41045 -2.44098,-0.9121 0,-0.50166 -1.8952,-1.2323 -4.21154,-1.62364 -4.33093,-0.73171 -4.94228,-0.95018 -10.6195,-3.79506 -1.83207,-0.91806 -3.85707,-1.6746 -4.5,-1.68121 -1.49179,-0.0153 -34.52649,-16.57598 -36.60778,-18.35188 -1.30545,-1.1139 -3.81637,-2.3131 -6.06118,-2.89477 -0.52455,-0.13592 -0.61909,-0.20671 -5.64436,-4.22627 -1.72939,-1.38329 -3.48305,-2.51507 -3.897,-2.51507 -0.41396,0 -2.67474,-1.575 -5.02394,-3.5 -2.34921,-1.925 -4.56119,-3.5 -4.91552,-3.5 -0.81267,0 -16.90195,-14.07706 -17.35251,-15.18232 -0.18334,-0.44972 -0.86678,-0.81768 -1.51876,-0.81768 -1.54232,0 -20.64791,-19.17064 -20.64791,-20.7182 0,-0.65033 -0.56301,-1.54228 -1.25112,-1.98211 -1.69824,-1.08547 -13.74888,-14.89368 -13.74888,-15.75412 0,-0.37772 -1.68932,-2.79249 -3.75404,-5.36616 -4.41381,-5.50183 -6.0876,-8.03484 -6.89162,-10.42941 -0.32318,-0.9625 -0.96401,-1.75 -1.42405,-1.75 -0.46005,0 -1.60801,-1.6875 -2.55102,-3.75 -0.94301,-2.0625 -2.298573,-4.44324 -3.012353,-5.29054 -1.76622,-2.09661 -7.33854,-13.17882 -7.35425,-14.62613 -0.007,-0.64166 -0.35017,-1.31666 -0.76267,-1.5 -0.97715,-0.43429 -5.77658,-10.24542 -5.19501,-10.6198 0.24476,-0.15757 -0.0284,-0.60757 -0.60709,-1 -1.27012,-0.86138 -4.43522,-7.47791 -4.4797,-9.36466 -0.0175,-0.74188 -0.69249,-2.22238 -1.5,-3.29 -0.80751,-1.06762 -1.4682,-2.98012 -1.4682,-4.25 0,-1.26988 -0.3989,-2.30887 -0.88646,-2.30887 -0.48755,0 -1.19012,-2.025 -1.56127,-4.5 -0.37115,-2.475 -1.09724,-4.5 -1.61354,-4.5 -0.5163,0 -0.93873,-1.09844 -0.93873,-2.44098 0,-1.34254 -0.4892,-2.74333 -1.08712,-3.11286 -0.59791,-0.36953 -0.86516,-1.52064 -0.59388,-2.55802 0.27128,-1.03738 0.0855,-2.13815 -0.41288,-2.44616 -0.49837,-0.30801 -0.90612,-1.8569 -0.90612,-3.44198 0,-1.58508 -0.40572,-3.13272 -0.9016,-3.43919 -0.49589,-0.30647 -1.21507,-3.25803 -1.59819,-6.55902 -0.38312,-3.30098 -1.05556,-6.00179 -1.49432,-6.00179 -0.43875,0 -1.12335,-3.7125 -1.52133,-8.25 -0.39798,-4.5375 -1.23231,-8.57106 -1.85408,-8.96346 -1.59959,-1.00953 -1.60007,-77.89546 -5e-4,-79.8827 0.62149,-0.77211 1.4471,-4.88834 1.8347,-9.14717 0.38759,-4.25883 1.07232,-7.97052 1.52162,-8.2482 0.4493,-0.27769 1.13037,-3.20569 1.51349,-6.50668 0.38312,-3.30098 1.05317,-6.00179 1.48899,-6.00179 0.70897,0 1.87766,-5.0368 2.08828,-9 0.0772,-1.45188 1.29174,-4.77405 2.9712,-8.12689 0.44821,-0.89479 1.12172,-3.26226 1.4967,-5.26105 0.37497,-1.99878 1.08075,-3.88074 1.5684,-4.18212 0.48765,-0.30139 0.88941,-1.30892 0.8928,-2.23896 0.003,-0.93004 0.67839,-2.97992 1.5,-4.55529 0.82161,-1.57537 1.49661,-3.37537 1.5,-4 0.003,-0.62463 0.73876,-2.48569 1.63416,-4.13569 4.6993,-8.65964 7.33568,-14.1319 7.34701,-15.25 0.007,-0.6875 0.42692,-1.25 0.93322,-1.25 0.50629,0 1.21705,-1.35 1.57945,-3 0.3624,-1.65 1.02437,-3 1.47105,-3 0.44667,0 1.12095,-1.2375 1.4984,-2.75 0.37745,-1.5125 1.77623,-4.18248 3.10841,-5.93328 1.33218,-1.7508 2.422143,-3.50833 2.422143,-3.90561 0,-0.39728 1.125,-2.19728 2.5,-4 1.375,-1.80272 2.5,-3.58043 2.5,-3.95048 0,-0.37005 1.35,-2.37734 3,-4.46063 1.65,-2.08329 3,-4.11364 3,-4.51189 0,-0.85996 4.89571,-6.94528 8.46809,-10.52576 1.39255,-1.39571 2.53191,-2.98952 2.53191,-3.5418 0,-0.55227 2.025,-2.99152 4.5,-5.42055 2.475,-2.42903 4.50652,-4.88522 4.51449,-5.45821 0.0176,-1.2634 19.42736,-20.54179 20.68181,-20.54179 0.48801,0 2.87467,-2.025 5.3037,-4.5 2.42903,-2.475 4.90633,-4.5 5.50512,-4.5 0.59879,0 2.19259,-1.33094 3.54179,-2.95765 1.3492,-1.62671 2.93715,-2.97671 3.52878,-3 0.59162,-0.0233 2.13256,-1.16735 3.42431,-2.54235 1.29175,-1.375 2.92283,-2.5 3.62462,-2.5 0.7018,0 1.63586,-0.5964 2.07569,-1.3254 0.43983,-0.729 1.47469,-1.6466 2.29969,-2.0392 1.97231,-0.9386 4.85324,-2.674 8.52504,-5.1354 4.54283,-3.0453 6.348,-4.0583 14.47496,-8.1229 4.125,-2.063 7.65,-4.1169 7.83333,-4.564 0.18334,-0.4472 0.80829,-0.8131 1.38879,-0.8131 0.5805,0 5.1555,-1.9772 10.16667,-4.3937 12.77578,-6.1609 16.18736,-7.6063 17.95332,-7.6063 0.84692,0 1.79377,-0.4108 2.10411,-0.913 0.31034,-0.5021 2.35954,-1.2163 4.55378,-1.587 2.19424,-0.3707 4.23537,-1.0718 4.53586,-1.558 0.30049,-0.4862 2.78794,-1.1814 5.52768,-1.5448 2.73974,-0.3635 5.20334,-1.02 5.47467,-1.459 0.27132,-0.439 2.96717,-1.1073 5.99077,-1.4851 3.0236,-0.3778 5.74306,-1.0843 6.04325,-1.57 0.30019,-0.4857 1.84269,-0.8831 3.42777,-0.8831 1.58508,0 3.13653,-0.4119 3.44766,-0.9153 0.31113,-0.5034 4.05018,-1.2324 8.30901,-1.62 4.25883,-0.3876 8.37499,-1.2132 9.14702,-1.8347 1.9801,-1.594 77.21252,-1.594 79.19262,0 0.77203,0.6215 4.88819,1.4471 9.14702,1.8347 4.25883,0.3876 7.99788,1.1166 8.30901,1.62 0.31113,0.5034 1.86258,0.9153 3.44766,0.9153 1.58508,0 3.13403,0.4078 3.4421,0.9063 0.30807,0.4985 2.92213,1.2239 5.80902,1.612 2.88688,0.3881 5.69888,1.0485 6.24888,1.4675 0.55,0.4191 3.12701,1.0697 5.72669,1.4458 2.59968,0.3762 4.96454,1.0688 5.25524,1.5392 0.2907,0.4703 2.32383,1.1585 4.51807,1.5292 2.19424,0.3707 4.24344,1.0849 4.55378,1.587 0.31034,0.5022 1.25719,0.913 2.10411,0.913 1.70832,0 4.89368,1.3483 17.13126,7.2512 7.5843,3.6583 8.17953,4.1554 7,5.846 -0.70903,1.0162 -14.78915,18.2732 -31.28915,38.34896 l -30,36.50131 -3.5,-0.56322 c -1.925,-0.30977 -3.95,-0.92959 -4.5,-1.37736 -0.55,-0.44778 -3.5875,-1.13436 -6.75,-1.52574 -3.1625,-0.39138 -5.75,-1.06291 -5.75,-1.49229 0,-0.42939 -3.7125,-1.1024 -8.25,-1.4956 -4.5375,-0.3932 -8.86874,-1.21681 -9.62498,-1.83025 -1.87438,-1.52045 -44.98164,-1.5032 -45.94295,0.0184 -0.37514,0.59376 -4.39457,1.40519 -8.93207,1.80317 -4.5375,0.39798 -8.25,1.07491 -8.25,1.5043 0,0.42938 -2.5875,1.10091 -5.75,1.49229 -3.1625,0.39138 -6.2,1.05618 -6.75,1.47734 -0.55,0.42115 -2.35,1.07796 -4,1.45956 -4.1476,0.95924 -8.5,2.91836 -8.5,3.82606 0,0.41574 -0.90163,0.75589 -2.00362,0.75589 -1.102,0 -3.68283,0.9 -5.7352,2 -2.05236,1.1 -4.30073,2 -4.99637,2 -0.69565,0 -1.26481,0.40122 -1.26481,0.89159 0,0.49038 -1.21005,1.1953 -2.68901,1.56649 -1.47895,0.37119 -3.89224,1.53168 -5.36287,2.57886 -1.47063,1.04719 -2.96058,1.61727 -3.311,1.26685 -0.35042,-0.35044 -0.63712,-0.18301 -0.63712,0.37205 0,0.55506 -1.6875,1.86355 -3.75,2.90777 -2.0625,1.04421 -5.74508,3.47757 -8.18351,5.40747 -2.43843,1.92989 -4.99908,3.7339 -5.69032,4.0089 -0.69124,0.275 -4.97399,3.875 -9.51722,8 -4.54323,4.125 -8.35883,7.275 -8.47912,7 -0.32303,-0.73851 -5.37983,4.19542 -5.37983,5.24911 0,0.49526 -3.2625,4.49368 -7.25,8.88537 -3.9875,4.39169 -7.475,8.55045 -7.75,9.24169 -0.275,0.69124 -2.1875,3.29823 -4.25,5.79331 -2.0625,2.49508 -3.75,4.89768 -3.75,5.33912 0,0.44144 -1.10099,2.24609 -2.44665,4.01034 -1.34565,1.76424 -2.74443,4.39422 -3.1084,5.84439 -0.36397,1.45017 -1.0142,2.63667 -1.44495,2.63667 -0.43075,0 -1.09265,1.23299 -1.47088,2.73998 -0.37823,1.50699 -0.98951,2.96949 -1.3584,3.25 -0.93743,0.71283 -5.85743,10.98462 -6.71054,14.01002 -0.38773,1.375 -1.04792,2.95 -1.4671,3.5 -0.41917,0.55 -1.09106,2.575 -1.49308,4.5 -0.40202,1.925 -1.08561,3.95 -1.5191,4.5 -0.43348,0.55 -1.10837,3.5875 -1.49975,6.75 -0.39138,3.1625 -1.10975,5.75 -1.59637,5.75 -0.48663,0 -0.88478,1.71 -0.88478,3.8 0,2.09 -0.4286,4.2286 -0.95244,4.75244 -0.52383,0.52383 -1.26608,5.80384 -1.64943,11.73334 -0.38335,5.92949 -1.07976,11.01746 -1.54757,11.30658 -1.22029,0.75418 -1.07697,18.40764 0.14944,18.40764 0.56911,0 1,2.94444 1,6.83333 0,3.75834 0.31917,7.15251 0.70926,7.5426 0.3901,0.3901 0.58399,2.44431 0.43088,4.56493 -0.15311,2.12062 0.20272,4.153 0.79074,4.51642 0.58801,0.36341 1.06912,2.18264 1.06912,4.04272 0,1.86008 0.41851,3.64062 0.93001,3.95675 0.51151,0.31612 1.2391,3.04863 1.61688,6.07223 0.37777,3.0236 1.05827,5.72699 1.51221,6.00754 0.45394,0.28056 1.12744,2.52461 1.49667,4.98679 0.36922,2.46218 1.02144,4.47669 1.44937,4.47669 0.42792,0 1.07573,1.2375 1.43957,2.75 0.80765,3.35742 11.66046,25.04464 15.63826,31.25 1.58655,2.475 3.19693,5.175 3.57864,6 0.38171,0.825 1.47552,2.4 2.43069,3.5 0.95518,1.1 3.35016,3.85454 5.32219,6.1212 1.97203,2.26666 3.58551,4.56693 3.58551,5.1117 0,1.2992 22.97677,24.2671 24.27647,24.2671 0.54993,0 3.07519,1.82815 5.6117,4.06256 7.13726,6.28722 8.8586,7.54427 13.11183,9.57528 0.825,0.39395 1.725,0.9741 2,1.28922 1.53233,1.75587 27.58904,14.80883 31.25,15.65451 1.5125,0.34939 2.75,1.03646 2.75,1.52684 0,0.49037 1.09844,0.89159 2.44098,0.89159 1.34254,0 2.70695,0.43035 3.03203,0.95633 0.32507,0.52598 1.20611,0.7203 1.95786,0.43182 0.75176,-0.28847 1.6639,-0.0438 2.027,0.54368 0.36309,0.58749 1.95705,1.06817 3.54213,1.06817 1.58508,0 3.13397,0.40775 3.44198,0.90612 0.30801,0.49837 1.40878,0.68416 2.44616,0.41288 1.03738,-0.27128 2.18849,-0.004 2.55802,0.59388 0.36953,0.59792 2.13032,1.08712 3.91286,1.08712 1.78254,0 3.67666,0.43568 4.20915,0.96817 0.53249,0.53249 6.02249,1.27515 12.2,1.65034 6.17751,0.3752 11.23183,1.06452 11.23183,1.53183 0,0.46731 4.275,0.84966 9.5,0.84966 5.225,0 9.5,-0.38235 9.5,-0.84966 0,-0.46731 5.0625,-1.15578 11.25,-1.52993 6.1875,-0.37415 11.4,-1.1168 11.58333,-1.65034 0.18334,-0.53354 2.06928,-0.97007 4.19099,-0.97007 2.1217,0 4.15999,-0.4892 4.52952,-1.08712 0.36953,-0.59791 1.52064,-0.86516 2.55802,-0.59388 1.03738,0.27128 2.13815,0.0855 2.44616,-0.41288 0.30801,-0.49837 1.8569,-0.90612 3.44198,-0.90612 1.58508,0 3.12855,-0.39899 3.42994,-0.88664 0.30138,-0.48765 2.24044,-1.20292 4.30901,-1.58948 2.06858,-0.38657 4.21105,-1.05751 4.76105,-1.49098 0.55,-0.43347 2.125,-1.10615 3.5,-1.49485 3.74928,-1.05988 25.06214,-11.58226 28.5,-14.07074 1.65,-1.19435 3.675,-2.48074 4.5,-2.85865 4.06043,-1.85996 5.93971,-3.22817 13.11183,-9.5461 2.53651,-2.23441 4.94157,-4.06256 5.34458,-4.06256 0.79042,0 7.8484,-6.33758 13.36405,-12 1.8751,-1.925 5.1599,-5.3 7.29955,-7.5 2.13965,-2.2 3.88796,-4.47831 3.88513,-5.06291 -0.003,-0.5846 1.34486,-2.35629 2.99486,-3.93709 1.65,-1.5808 3,-3.36565 3,-3.96633 0,-0.60068 0.94388,-1.75399 2.09752,-2.56291 1.15363,-0.80892 2.50256,-2.37076 2.99761,-3.47076 0.93086,-2.06835 2.07205,-3.97629 5.27368,-8.81694 2.82597,-4.27267 13.41232,-25.56859 12.94343,-26.03749 -0.22564,-0.22563 0.45803,-1.95613 1.51925,-3.84555 1.06122,-1.88942 2.26024,-4.97987 2.66448,-6.86766 0.40423,-1.8878 1.08263,-3.88236 1.50753,-4.43236 0.42491,-0.55 1.0901,-3.362 1.47821,-6.24888 0.38811,-2.88689 1.06644,-5.47186 1.5074,-5.74439 0.44095,-0.27252 1.12085,-4.10055 1.51089,-8.50673 0.39004,-4.40618 1.1121,-8.26026 1.60458,-8.56463 0.49248,-0.30437 0.89542,-3.65029 0.89542,-7.43537 0,-3.78508 0.45,-7.16008 1,-7.5 0.55,-0.33992 1,-4.38992 1,-9 0,-4.61008 -0.45,-8.66008 -1,-9 -0.55,-0.33992 -1,-3.48992 -1,-7 0,-3.51008 -0.39622,-6.62684 -0.88049,-6.92614 -0.48426,-0.29929 -1.19966,-4.37585 -1.58977,-9.05901 -0.3901,-4.68317 -1.0747,-8.51485 -1.52132,-8.51485 -0.44663,0 -1.12551,-2.70081 -1.50863,-6.00179 -0.38312,-3.30099 -1.1023,-6.25255 -1.59819,-6.55902 -1.0867,-0.67162 -1.21208,-6.13453 -0.1516,-6.60586 0.4125,-0.18333 16.19706,-16.64583 35.07679,-36.58333 18.87974,-19.9375 34.62974,-36.2463 35,-36.24177 0.37027,0.005 3.42451,5.74203 6.78721,12.75 8.29303,17.28294 9.386,19.79631 9.386,21.58388 0,0.84692 0.41084,1.79377 0.91299,2.10411 0.50214,0.31034 1.2163,2.35954 1.58701,4.55378 0.37071,2.19424 1.07182,4.23537 1.55802,4.53586 0.4862,0.30049 1.18136,2.78794 1.5448,5.52768 0.36344,2.73974 1.05148,5.22281 1.52899,5.51792 0.4775,0.29512 0.86819,1.83346 0.86819,3.41854 0,1.58508 0.40775,3.13397 0.90612,3.44198 0.49837,0.30801 0.68416,1.40878 0.41288,2.44616 -0.27128,1.03738 -0.004,2.18849 0.59388,2.55802 0.59792,0.36953 1.08712,1.96876 1.08712,3.55384 0,1.58508 0.41189,3.13653 0.91531,3.44766 0.50341,0.31113 1.23242,4.05018 1.62001,8.30901 0.3876,4.25883 1.21321,8.37506 1.8347,9.14717 1.59957,1.98724 1.59909,78.87317 -5e-4,79.8827 -0.62177,0.3924 -1.4561,4.42596 -1.85408,8.96346 -0.39798,4.5375 -1.12677,8.25 -1.61952,8.25 -0.49276,0 -0.89592,1.32344 -0.89592,2.94098 0,1.61754 -0.49238,3.24529 -1.09417,3.61722 -0.60179,0.37193 -0.88714,1.75923 -0.63411,3.08288 0.25303,1.32366 0.0704,2.64747 -0.40583,2.9418 -0.47624,0.29434 -0.86589,1.8586 -0.86589,3.47614 0,1.61754 -0.39203,2.94098 -0.87117,2.94098 -0.47914,0 -1.16719,2.23151 -1.52899,4.9589 -0.3618,2.7274 -1.05562,5.20475 -1.54182,5.50524 -0.4862,0.30049 -1.20379,2.43918 -1.59465,4.75265 -0.39085,2.31346 -1.0388,4.8986 -1.43987,5.74475 -0.40107,0.84616 -1.42176,3.11346 -2.2682,5.03846 -0.84644,1.925 -2.26265,5.14301 -3.14714,7.15113 -0.88449,2.00812 -1.60816,4.14562 -1.60816,4.75 0,0.60438 -0.45,1.09887 -1,1.09887 -0.55,0 -1,0.51321 -1,1.14047 0,1.1305 -4.03626,9.89849 -4.99907,10.85953 -0.27551,0.275 -2.30093,4.02864 -4.50093,8.34143 -6.31713,12.38385 -8.28293,15.90272 -9.24699,16.55261 -0.49439,0.33328 -1.20071,1.28096 -1.56959,2.10596 -1.08882,2.43515 -2.96331,5.22119 -6.68342,9.93351 -1.925,2.43843 -3.725,4.99908 -4,5.69032 -0.275,0.69124 -3.7625,4.85 -7.75,9.24169 -3.9875,4.39169 -7.25,8.36449 -7.25,8.82845 0,1.0883 -19.27016,20.30603 -20.36143,20.30603 -0.4541,0 -4.76454,3.6 -9.57874,8 -4.8142,4.4 -9.20236,8 -9.75147,8 -0.54911,0 -1.81287,0.9 -2.80836,2 -0.99549,1.1 -2.36709,2 -3.048,2 -0.68091,0 -1.49704,0.675 -1.81363,1.5 -0.31658,0.825 -1.01974,1.5 -1.56258,1.5 -0.54284,0 -3.55656,1.8 -6.69717,4 -3.1406,2.2 -6.25548,4 -6.92196,4 -0.66647,0 -1.71767,0.60957 -2.33599,1.3546 -1.23713,1.49065 -19.2093,10.6454 -20.89855,10.6454 -0.5805,0 -1.20545,0.34579 -1.38879,0.76842 -0.44494,1.0257 -13.20574,7.22297 -14.95604,7.26338 -0.75751,0.0175 -2.2508,0.6925 -3.31842,1.5 -1.06762,0.80751 -2.98012,1.4682 -4.25,1.4682 -1.26988,0 -2.30887,0.39249 -2.30887,0.87219 0,0.47971 -1.81965,1.16317 -4.04367,1.5188 -2.22403,0.35564 -5.03653,1.15841 -6.25,1.78394 -4.4731,2.30581 -5.39069,2.59398 -10.49512,3.29602 -2.86494,0.39403 -5.43367,1.07998 -5.7083,1.52434 -0.27463,0.44436 -3.20013,1.12138 -6.50112,1.5045 -3.30098,0.38312 -6.00179,1.062 -6.00179,1.50863 0,0.44662 -3.825,1.13066 -8.5,1.52009 -4.675,0.38942 -8.5,1.10482 -8.5,1.58977 0,0.48494 -3.075,0.88172 -6.83333,0.88172 -3.75834,0 -7.07392,0.24058 -7.36797,0.53463 -0.8428,0.84281 -51.93586,1.05259 -52.45325,0.21537 z m 76.35656,-139 c -7.29023,-11.1375 -26.29305,-40.14563 -42.22849,-64.46251 -15.93543,-24.31688 -30.20333,-46.14188 -31.70643,-48.5 -4.2921,-6.73361 -6.34038,-16.60301 -4.97239,-23.95897 1.5507,-8.3385 4.3213,-13.57388 11.10186,-20.9783 16.45493,-17.96893 118.3842,-133.55921 118.89814,-134.8334 0.95191,-2.36003 58.8165,-67.88379 65.80644,-74.51682 3.47757,-3.3 12.24852,-12.75 19.491,-21 7.24249,-8.25 13.44709,-14.8943 13.78801,-14.7652 0.34092,0.1292 12.18744,10.4379 26.32559,22.9083 l 25.70575,22.67338 -2.32841,2.76715 c -1.28062,1.52193 -8.7982,10.04353 -16.70574,18.93688 -7.90754,8.89335 -14.79906,16.91442 -15.31451,17.82461 -0.51544,0.91018 -14.91723,17.17988 -32.00399,36.15488 -35.71655,39.66356 -135.92356,152.78247 -136.33394,153.90087 -0.15131,0.41236 14.4134,23.20658 32.36602,50.65384 17.95262,27.44726 34.13603,52.24102 35.96313,55.09724 l 3.32201,5.19314 -28.45729,18.57746 c -15.65152,10.2176 -28.68331,18.57745 -28.95955,18.57745 -0.27623,0 -6.46698,-9.1125 -13.75721,-20.25 z"
           id="path3196"
           inkscape:connector-curvature="0" />
        <g
           id="g4060"
           style="fill:#008000;stroke:#008000;stroke-opacity:1">
          <g
             id="g4057"
             style="fill:#008000;stroke:#008000;stroke-opacity:1" />
        </g>
      </g>
    </g>
  </g>
</svg>
