<?xml version="1.0" encoding="UTF-8" standalone="no"?>
<!-- Created with Inkscape (http://www.inkscape.org/) -->

<svg
   xmlns:dc="http://purl.org/dc/elements/1.1/"
   xmlns:cc="http://creativecommons.org/ns#"
   xmlns:rdf="http://www.w3.org/1999/02/22-rdf-syntax-ns#"
   xmlns:svg="http://www.w3.org/2000/svg"
   xmlns="http://www.w3.org/2000/svg"
   xmlns:sodipodi="http://sodipodi.sourceforge.net/DTD/sodipodi-0.dtd"
   xmlns:inkscape="http://www.inkscape.org/namespaces/inkscape"
   width="1300.408"
   height="665.99994"
   id="svg2"
   version="1.1"
   inkscape:version="0.48.1 "
   sodipodi:docname="Nouveau document 1">
  <defs
     id="defs4" />
  <sodipodi:namedview
     id="base"
     pagecolor="#ffffff"
     bordercolor="#666666"
     borderopacity="1.0"
     inkscape:pageopacity="0.0"
     inkscape:pageshadow="2"
     inkscape:zoom="0.35"
     inkscape:cx="712.06423"
     inkscape:cy="596.99268"
     inkscape:document-units="px"
     inkscape:current-layer="layer1"
     showgrid="false"
     fit-margin-top="0"
     fit-margin-left="0"
     fit-margin-right="0"
     fit-margin-bottom="0"
     inkscape:window-width="1680"
     inkscape:window-height="994"
     inkscape:window-x="-4"
     inkscape:window-y="-4"
     inkscape:window-maximized="1" />
  <metadata
     id="metadata7">
    <rdf:RDF>
      <cc:Work
         rdf:about="">
        <dc:format>image/svg+xml</dc:format>
        <dc:type
           rdf:resource="http://purl.org/dc/dcmitype/StillImage" />
        <dc:title></dc:title>
      </cc:Work>
    </rdf:RDF>
  </metadata>
  <g
     inkscape:label="Calque 1"
     inkscape:groupmode="layer"
     id="layer1"
     transform="translate(91.227224,-658.07647)">
    <path
       style="fill:#008000"
       d="m -53.827857,1294.0764 0,-30 613.500007,0 613.50005,0 0,30 0,30 -613.50005,0 -613.500007,0 0,-30 z m 177.000007,-42.6503 c -25.752303,-4.3394 -57.759407,-15.8466 -77.500007,-27.8628 -2.2,-1.3392 -5.35,-3.1876 -7,-4.1077 -7.5719,-4.2223 -30.0744999,-20.7419 -34.7500002,-25.5106 -3.93809996,-4.0166 -1.5751,-4.836 14.0000002,-4.8549 l 11.25,-0.014 0,-53.8129 0,-53.8129 2.8047,-2.6871 2.8047,-2.6871 23.5201,0 c 22.1603,0 23.9256,0.138 30.5338,2.3855 24.327007,8.2742 33.166807,25.6776 33.327707,65.6145 0.074,18.3818 1.6396,37.1803 3.4592,41.5351 l 1.5044,3.6007 41.2727,-0.7041 c 22.7,-0.3873 45.2024,-0.9803 50.0053,-1.3179 l 8.7327,-0.6138 -2.6126,-5.5 c -2.5937,-5.4604 -2.6184,-5.741 -3.4243,-39 -1.1125,-45.9087 -3.3986,-61.2743 -11.5325,-77.5123 -2.0308,-4.0542 -5.3132,-8.9282 -7.2942,-10.8311 -3.9396,-3.7845 -10.6232,-7.6566 -13.2161,-7.6566 -2.1149,0 -12.8528,-4.8215 -15.1356,-6.7962 -2.8085,-2.4293 -2.071,-3.5538 4.017,-6.1243 6.7546,-2.852 16.4021,-9.4236 22.0648,-15.03 13.7302,-13.5937 20.7506,-34.81417 20.5278,-62.04947 -0.2445,-29.9025 -9.145,-51.4596 -27.1192,-65.6829 -9.4253,-7.4584 -19.9101,-12.2132 -35.7404,-16.2081 -25.7838,-6.5066 -53.9575,-8.1008 -143.250007,-8.1054 l -68.25,0 0,-2.9704 c 0,-8.848 13.5215,-28.151 32.5935,-46.5296 17.3488998,-16.7182 41.1792,-36.721 52.4065,-43.9893 16.1308,-10.4427 50.1963,-25.5969 64,-28.4706 1.925,-0.4008 5.975007,-1.4611 9.000007,-2.3562 5.1935,-1.5368 24.7544,-5.4041 28,-5.5357 49.1383,-1.9923 66.8719,-0.8515 93.5,6.015 19.5422,5.0392 43.7188,14.9205 57,23.2966 13.5024,8.5158 21.0696,13.7149 27.5,18.8943 12.4899,10.0601 33.5031,31.4161 43.7108,44.4239 l 9.635,12.2779 2.9719,-4.7779 c 1.6345,-2.6279 3.8067,-5.9973 4.827,-7.4875 1.0204,-1.4903 1.8553,-3.108 1.8553,-3.595 0,-0.4871 0.9,-1.7 2,-2.6955 1.1,-0.9955 2.0025,-2.3027 2.0055,-2.905 0,-0.6023 1.9156,-3.2029 4.25,-5.7792 2.3345,-2.5764 6.2695,-7.2249 8.7445,-10.3302 7.0083,-8.793 10.6058,-12.367 23.5,-23.3461 6.6,-5.6198 12.45,-10.5473 13,-10.95 4.4367,-3.2487 16.8693,-10.9825 21.8708,-13.605 3.371,-1.7676 7.0292,-3.7292 8.1292,-4.3593 5.2792,-3.0237 23.8101,-11.2484 24.2815,-10.777 0.2939,0.2939 1.0258,0.147 1.6264,-0.3266 1.3606,-1.0727 8.8299,-3.603 9.831,-3.3303 0.4064,0.1107 2.4314,-0.4651 4.5,-1.2796 4.3834,-1.7259 14.2503,-4.0387 26.2611,-6.1557 6.7494,-1.1897 14.9874,-1.4113 40,-1.0763 33.5738,0.4496 34.7366,0.6023 57.6747,7.5728 1.7461,0.5306 3.4227,0.7167 3.7258,0.4136 0.3031,-0.3031 1.1245,-0.083 1.8253,0.4894 0.7008,0.5722 3.5275,1.7047 6.2816,2.5165 5.6228,1.6575 22.1482,9.3617 22.985,10.7157 0.5231,0.8465 -10.1528,15.085 -17.5906,23.4605 -1.9789,2.2285 -7.5725,9.0018 -12.43,15.0518 -4.8576,6.05 -9.0947,11.225 -9.4157,11.5 -0.4887,0.4186 -8.8748,10.6643 -9.7356,11.8944 -0.1518,0.2169 -2.2037,-0.3419 -4.5597,-1.2417 -2.3561,-0.8998 -9.2286,-2.645 -15.2723,-3.8782 -21.1602,-4.3179 -57.6918,-2.4006 -71.2725,3.7405 -1.8061,0.8167 -4.1135,1.485 -5.1275,1.485 -1.014,0 -2.4039,0.675 -3.0885,1.5 -0.6847,0.825 -2.0384,1.5 -3.0083,1.5 -2.1384,0 -17.3558,7.7986 -24.3957,12.5024 -2.8028,1.8727 -8.9101,6.5758 -13.5718,10.4513 -4.6616,3.8754 -8.7478,7.0463 -9.0804,7.0463 -0.3327,0 -1.9904,1.9125 -3.6839,4.25 -1.6935,2.3375 -3.9271,5.15 -4.9635,6.25 -6.1475,6.5243 -19.2964,25.8602 -19.2964,28.376 0,0.4228 -1.3327,3.2292 -2.9614,6.2364 -3.5806,6.6109 -8.0221,19.3731 -8.0317,23.0786 0,1.48 -0.4072,2.9383 -0.8965,3.2407 -1.5697,0.9701 -4.3812,22.4822 -4.2564,32.5683 0.1313,10.6149 1.1502,23.3568 2.0392,25.5 1.5752,3.7975 3.1068,9.1475 3.1068,10.8525 0,2.8805 3.887,13.4497 8.4725,23.03747 10.8488,22.6838 23.4365,38.6789 42.783,54.364 8.262,6.6984 15.5668,11.1712 27.7445,16.9884 12.6044,6.021 15.1031,7.0212 19.5,7.8051 2.2,0.3923 4.5733,1.1687 5.2741,1.7254 0.7008,0.5566 1.5594,0.7269 1.908,0.3783 0.3486,-0.3486 1.1252,-0.2582 1.7258,0.2008 0.6007,0.4591 5.1421,1.3703 10.0921,2.025 4.95,0.6546 10.9189,1.6251 13.2643,2.1566 5.3679,1.2165 13.1059,1.2379 18.5428,0.051 2.3061,-0.5033 8.0179,-1.4389 12.6929,-2.079 4.675,-0.6402 9.175,-1.4159 10,-1.7238 0.825,-0.308 2.175,-0.6847 3,-0.8373 2.6173,-0.4841 12.421,-3.3523 14.5,-4.2422 17.4339,-7.4628 28.7621,-14.0327 41,-23.7783 11.5076,-9.1642 26.7865,-25.8391 31.0698,-33.9088 0.5884,-1.1086 2.1858,-3.8156 3.5497,-6.0156 5.967,-9.6248 13.472,-27.39377 14.7982,-35.03657 0.3852,-2.2201 1.0195,-4.5528 1.4094,-5.1837 1.2377,-2.0026 4.055,-24.482 4.0455,-32.2797 -0.011,-9.413 -1.9946,-23.6987 -4.9855,-35.9122 -1.2677,-5.1768 -1.9859,-9.9643 -1.596,-10.6391 1.1398,-1.9725 18.0718,-20.0667 39.7222,-42.4487 5.5863,-5.775 13.0034,-14.325 16.4825,-19 7.9287,-10.654 9.6579,-12.5888 25.0042,-27.9754 14.6671,-14.7057 16.2904,-16.1616 29.6531,-26.5963 16.5291,-12.9073 39.7415,-28.0966 47.1352,-30.8435 2.0415,-0.7584 6.8617,-2.5718 10.7117,-4.0296 22.4346,-8.4953 44.8207,-14.1701 65.1133,-16.5061 11.4762,-1.3211 44.3767,-1.3635 54.9129,-0.071 4.3856,0.5381 10.067,1.1643 12.62531,1.3915 8.96574,0.7964 28.13164,5.5435 39.36784,9.7508 2.7607,1.0336 5.7082,1.8794 6.55,1.8794 0.8419,0 1.9582,0.3691 2.4807,0.8203 0.5225,0.4511 4.1,2.0944 7.95,3.6516 3.85,1.5572 8.35,3.6032 10,4.5467 1.65,0.9435 5.7,3.1913 9,4.9952 11.6488,6.3674 12.495,6.9035 23.5,14.8887 18.889,13.7059 33.8593,28.3282 53.8511,52.5994 4.4729,5.4304 20.1705,27.7226 21.4758,30.4981 0.388,0.825 2.033,3.525 3.6554,6 11.137,16.9889 21.5635,44.139 28.4186,74 6.2495,27.2236 6.1219,81.64387 -0.262,111.71747 -1.7675,8.3266 -2.7587,11.996 -6.2891,23.2825 -1.3177,4.2124 -7.5743,20.4658 -8.7853,22.8222 -0.4742,0.9228 -2.3364,4.6028 -4.1383,8.1778 -3.5363,7.0165 -6.1453,11.7704 -9.0554,16.5 -1.0153,1.65 -2.2546,3.9185 -2.7542,5.0411 -0.4995,1.1226 -1.6301,2.6402 -2.5124,3.3724 -0.8823,0.7323 -1.6042,1.7212 -1.6042,2.1978 0,1.05 -7.5307,11.1759 -14.4195,19.3887 -16.6263,19.8216 -30.856,33.4866 -53.6292,51.5006 -20.1879,15.9691 -28.8834,21.1275 -48.9513,29.0392 -3.025,1.1925 -6.85,2.7293 -8.5,3.4149 -14.5536,6.0476 -35.9596,11.9238 -54.55755,14.9765 -13.4935,2.2148 -58.6316,2.2039 -71.3562,-0.017 -16.3247,-2.8497 -28.1538,-6.0643 -47.5863,-12.9319 -4.3411,-1.5342 -23.3409,-10.7418 -29.5,-14.2962 -23.248,-13.4162 -38.056,-24.9005 -56.513,-43.8282 -13.6617,-14.0102 -21.5001,-23.1893 -30.5308,-35.7528 -7.8781,-10.9601 -10.4562,-14.6538 -10.4562,-14.9807 0,-0.1677 -2.2724,-4.0857 -5.0497,-8.7067 -2.7772,-4.621 -6.8449,-12.1456 -9.0392,-16.7214 l -3.9897,-8.3197 -4.7107,5.6154 c -4.8456,5.7763 -19.0947,18.1391 -33.7107,29.2482 -7.7337,5.878 -34.9576,20.3729 -46.9567,25.0012 -2.2239,0.8578 -4.4708,1.9419 -4.9933,2.4092 -0.5225,0.4673 -2.003,0.8497 -3.2899,0.8497 -1.2869,0 -4.104,0.9 -6.2601,2 -2.1562,1.1 -5.0912,2 -6.5223,2 -1.4311,0 -4.7115,0.6859 -7.2898,1.5242 -12.539,4.0769 -20.7557,4.8217 -53.1879,4.8217 -32.4323,0 -40.649,-0.7448 -53.1879,-4.8217 -2.5784,-0.8383 -5.847,-1.5242 -7.2636,-1.5242 -2.4795,0 -3.385,-0.3109 -8.285,-2.8439 -1.23,-0.6359 -3.255,-1.1591 -4.5,-1.1627 -1.2449,0 -3.6135,-0.9007 -5.2635,-1.9934 -1.65,-1.0928 -3.5859,-1.9898 -4.302,-1.9935 -2.3083,-0.012 -36.0568,-17.2295 -40.6559,-20.7418 -1.2709,-0.9706 -3.3157,-2.4397 -4.5441,-3.2647 -4.3412,-2.9157 -13.6394,-10.5419 -16.7646,-13.75 -1.7413,-1.7875 -3.53,-3.25 -3.9748,-3.25 -0.4448,0 -4.1601,-3.374 -8.2564,-7.4977 l -7.4476,-7.4977 -3.6042,7.2477 c -10.4031,20.9194 -24.7396,41.3708 -42.4504,60.557 -23.3222,25.2649 -52.9463,48.893 -74.1961,59.1787 -7.0422,3.4087 -14.1539,6.9227 -15.8039,7.809 -1.65,0.8863 -3.0146,1.407 -3.0324,1.1572 -0.018,-0.2499 -1.8179,0.2764 -4,1.1693 -16.3511,6.6911 -36.08,12.1319 -55.5252,15.3129 -12.6913,2.0762 -59.4411,2.0198 -71.9424,-0.087 z m 896.57885,-176.7038 -0.7276,-118.31827 2.5392,-1.6638 c 2.2722,-1.4888 7.2234,-1.6638 47.0744,-1.6638 l 44.5352,0 0,-42 0,-42 -145.75005,-3e-4 -145.75,-3e-4 0.2714,42.0003 0.2713,42.0003 44.8043,0 44.8044,0 2.0796,2.25 c 2.0468,2.2145 2.0886,3.2373 2.6482,64.74997 0.3126,34.375 0.5801,87.475 0.5944,118 l 0.026,55.5 51.6534,-0.2679 51.65345,-0.2679 -0.7276,-118.3183 z m -413.94485,-2.3959 c -1.5123,-2.0625 -6.4361,-9.3936 -10.9418,-16.2914 -4.5057,-6.8978 -13.2003,-20.1728 -19.3212,-29.5 -6.121,-9.3272 -15.9488,-24.3836 -21.8397,-33.45857 -5.8908,-9.075 -11.5107,-17.6388 -12.4887,-19.0306 -4.6913,-6.6766 -6.0426,-10.807 -6.0426,-18.4694 0,-5.7472 0.512,-8.5834 2.1182,-11.7317 1.165,-2.2837 9.1342,-12.0533 17.7094,-21.7102 8.5751,-9.6569 16.9594,-19.1007 18.6317,-20.9862 1.6724,-1.8855 5.0734,-5.7105 7.5579,-8.5 2.4845,-2.7895 7.8765,-8.8969 11.9822,-13.5719 4.1058,-4.675 8.6664,-9.85 10.1347,-11.5 14.4011,-16.1827 28.6943,-32.5918 34.8422,-40 10.6705,-12.8579 43.9885,-50.472 53.5899,-60.5 4.4761,-4.675 11.8659,-12.6836 16.4217,-17.7969 l 8.2833,-9.2969 2.1144,1.9221 c 1.1629,1.0572 10.4394,9.2179 20.6144,18.135 10.175,8.917 18.638,16.5872 18.8067,17.0449 0.1687,0.4577 -3.2342,4.8056 -7.562,9.662 -4.3277,4.8564 -12.5136,14.2298 -18.1907,20.8298 -11.0875,12.8898 -21.4992,24.6651 -29.6155,33.4941 -2.7838,3.0283 -10.4075,11.5809 -16.9415,19.0059 -6.534,7.425 -12.5814,14.2171 -13.4385,15.0936 -2.4428,2.4977 -14.4923,16.0339 -17.6806,19.862 -1.5828,1.9006 -3.9521,4.6006 -5.2649,6 -1.3128,1.3995 -10.1412,11.3194 -19.6187,22.0444 -9.4775,10.725 -20.405,23.0791 -24.2835,27.4535 -8.1253,9.1643 -8.2573,7.3002 1.5392,21.7367 1.7875,2.6341 3.25,5.1742 3.25,5.6446 0,0.4704 0.9,1.6698 2,2.6652 1.1,0.9955 2,2.1829 2,2.6387 0,0.4558 3.375,5.8228 7.5,11.9266 4.125,6.10377 7.5,11.25597 7.5,11.44917 0,0.1933 3.375,5.3913 7.5,11.5512 4.125,6.1598 7.5,11.315 7.5,11.456 0,0.1409 2.4725,3.9928 5.4944,8.5597 l 5.4945,8.3035 -12.2445,7.9837 c -6.7344,4.3911 -16.9005,11.0545 -22.5913,14.8076 -5.6907,3.7531 -10.6669,6.8238 -11.0581,6.8238 -0.3913,0 -1.9487,-1.6875 -3.461,-3.75 z m -687.407907,-9.5 c -9.0085,-33.5344 -11.8765,-70.07807 -7.8286,-99.74997 3.5704,-26.1713 9.2923,-45 13.6751,-45 1.8864,0 1.9274,1.6275 1.9274,76.5 l 0,76.49997 -2.7789,0 c -2.6348,0 -2.8937,-0.4276 -4.995,-8.25 z m 116.5364,-57.3153 c -5.4037,-2.9321 -5.7625,-4.9776 -5.7625,-32.85017 l 0,-25.5149 3.1035,-3.5348 3.1036,-3.5348 23.1464,0.019 c 21.1171,0.017 23.9355,0.2266 32.1465,2.3887 16.759607,4.4132 25.928607,10.3393 30.860507,19.9458 2.1661,4.2192 2.4531,5.9303 2.1964,13.0986 -0.2455,6.8576 -0.7561,9.0319 -3.0334,12.9178 -5.4031,9.2197 -14.5346,14.32667 -30.449807,17.02947 -12.9359,2.197 -51.2823,2.2215 -55.3112,0.035 z m -88.7625,-317.43467 0,-29.99996 613.500007,0 613.50005,0 0,29.99996 0,30 -613.50005,0 -613.500007,0 0,-30 z"
       id="path3020"
       inkscape:connector-curvature="0" />
  </g>
</svg>
